# Blender v2.79 (sub 0) OBJ File: ''
# www.blender.org
o Cylinder
v 0.000000 -0.281488 -0.929449
v 0.000000 0.998453 -0.322071
v 0.804927 -0.281488 -0.464724
v 0.278922 0.998453 -0.161035
v 0.804926 -0.281488 0.464724
v 0.278922 0.998453 0.161035
v -0.000000 -0.281488 0.929449
v -0.000000 0.998453 0.322071
v -0.804926 -0.281488 0.464724
v -0.278922 0.998453 0.161035
v -0.804926 -0.281488 -0.464724
v -0.278922 0.998453 -0.161035
v 0.000000 5.769703 -0.004579
v 0.003966 5.769703 -0.002289
v 0.003966 5.769703 0.002289
v 0.000000 5.769703 0.004579
v -0.003965 5.769703 0.002289
v -0.003965 5.769703 -0.002289
v -0.161031 4.423702 0.438214
v -0.460020 4.423702 0.079650
v 0.460020 4.423702 -0.079650
v 0.298989 4.423702 0.358564
v -0.298989 4.423702 -0.358564
v 0.161031 4.423702 -0.438214
v -1.099530 2.411464 0.473359
v 0.959706 2.411464 0.715542
v -0.959706 2.411464 -0.715542
v -0.139824 2.411464 1.188901
v 1.099531 2.411464 -0.473359
v 0.139825 2.411464 -1.188901
v 0.000000 0.236734 -0.413087
v 0.357744 0.236734 -0.206544
v 0.357744 0.236734 0.206544
v -0.000000 0.236734 0.413087
v -0.357744 0.236734 0.206544
v -0.357744 0.236734 -0.206544
v -1.809110 0.873008 0.509739
v 1.346002 0.873008 1.311866
v -1.346002 0.873008 -1.311866
v -0.463108 0.873009 1.796786
v 1.642741 0.873009 -0.509739
v 0.463108 0.873009 -1.821605
v 0.123298 3.559623 0.773526
v 0.608244 3.559623 -0.493542
v -0.123298 3.559623 -0.773526
v -0.608244 3.559623 0.493542
v 0.731542 3.559623 0.279984
v -0.731542 3.559623 -0.279984
v -0.132822 4.423702 0.361448
v 0.379434 4.423702 -0.065697
v 0.093607 4.423702 -0.254734
v -0.267409 4.423702 0.046300
v 0.173802 4.423702 0.208433
v -0.246612 4.423702 -0.295751
v -0.486607 3.559623 0.394843
v 0.585248 3.559623 0.223993
v -0.437956 3.559623 -0.167619
v 0.073815 3.559623 0.463091
v 0.364141 3.559623 -0.295471
v -0.098641 3.559623 -0.618836
v -0.106159 2.411464 0.650819
v 0.477679 2.411464 -0.359389
v 0.106159 2.411464 -0.902651
v -0.834799 2.411464 0.359389
v 0.728640 2.411464 0.543262
v -0.632181 2.411464 -0.321222
vt 0.831736 0.108008
vt 0.849957 0.243794
vt 0.806270 0.228927
vt 0.945889 0.143068
vt 0.901713 0.296041
vt 0.570531 0.136630
vt 0.698423 0.253096
vt 0.632424 0.310415
vt 0.637161 0.111500
vt 0.729523 0.216399
vt 0.330429 0.833719
vt 0.206808 0.885408
vt 0.283338 0.798307
vt 0.704787 0.094850
vt 0.772183 0.215828
vt 0.772087 0.094850
vt 0.792340 0.428445
vt 0.758780 0.285474
vt 0.778358 0.265523
vt 0.205149 0.883574
vt 0.200240 0.892319
vt 0.155969 0.773429
vt 0.107538 0.770017
vt 0.240372 0.779863
vt 0.196418 0.772105
vt 0.200341 0.884865
vt 0.404223 0.892319
vt 0.206572 0.888777
vt 0.202805 0.883165
vt 0.244324 0.770784
vt 0.197513 0.747962
vt 0.410811 0.838131
vt 0.339022 0.823699
vt 0.156788 0.765685
vt 0.298609 0.770187
vt 0.120187 0.751553
vt 0.138307 0.735920
vt 0.191861 0.684837
vt 0.192652 0.702916
vt 0.355919 0.723166
vt 0.453968 0.717470
vt 0.433694 0.730368
vt 0.249438 0.682304
vt 0.240181 0.706416
vt 0.307264 0.704627
vt 0.374365 0.689523
vt 0.049140 0.745674
vt 0.125549 0.692989
vt 0.308548 0.684376
vt 0.788161 0.265659
vt 0.765131 0.268310
vt 0.793389 0.276459
vt 0.215268 0.186565
vt 0.226290 0.109065
vt 0.260467 0.125498
vt 0.158778 0.166718
vt 0.074618 0.115785
vt 0.150954 0.100096
vt 0.231108 0.203045
vt 0.298768 0.158444
vt 0.197391 0.174718
vt 0.190785 0.100610
vt 0.240490 0.226249
vt 0.365888 0.244169
vt 0.178466 0.167728
vt 0.169538 0.395877
vt 0.105813 0.379432
vt 0.169194 0.379430
vt 0.323817 0.411196
vt 0.410748 0.403392
vt 0.395780 0.416695
vt 0.230794 0.376649
vt 0.232176 0.404368
vt 0.277654 0.375827
vt 0.330499 0.380038
vt 0.038024 0.409829
vt 0.108233 0.407444
vt 0.277103 0.385896
vt 0.143878 0.269481
vt 0.198919 0.264971
vt 0.357494 0.274815
vt 0.402882 0.259418
vt 0.252878 0.270799
vt 0.305415 0.267477
vt 0.089562 0.259418
vt 0.295014 0.575572
vt 0.024249 0.722381
vt 0.102261 0.583295
vt 0.360770 0.571400
vt 0.229310 0.571400
vt 0.427964 0.580183
vt 0.166695 0.582778
vt 0.298933 0.043230
vt 0.148658 0.022538
vt 0.346513 0.055692
vt 0.237849 0.021956
vt 0.408289 0.101906
vt 0.193840 0.024453
vt 0.887909 0.126477
vt 0.143329 0.177623
vt 0.023281 0.392954
vt 0.041110 0.582134
vt 0.103446 0.021956
vn 0.4973 0.1029 -0.8614
vn 0.9947 0.1029 0.0000
vn 0.4973 0.1029 0.8614
vn -0.4973 0.1029 0.8614
vn -0.7362 0.2847 0.6139
vn -0.9947 0.1029 0.0000
vn -0.4973 0.1029 -0.8614
vn 0.0000 -1.0000 0.0000
vn 0.0000 1.0000 0.0000
vn 0.8998 0.2847 0.3306
vn -0.8998 0.2847 -0.3306
vn 0.7362 0.2847 -0.6139
vn 0.1635 0.2847 0.9446
vn -0.1635 0.2847 -0.9446
vn -0.3785 0.6533 -0.6557
vn -0.7571 0.6533 0.0000
vn -0.3785 0.6533 0.6557
vn 0.3785 0.6533 0.6557
vn 0.7571 0.6533 0.0000
vn 0.3785 0.6533 -0.6557
vn 0.0257 -0.9955 0.0912
vn -0.0248 -0.9954 -0.0925
vn -0.0744 -0.9950 0.0669
vn 0.0918 -0.9955 0.0234
vn -0.0995 -0.9949 -0.0162
vn 0.0659 -0.9954 -0.0689
vn -0.8003 0.4926 0.3418
vn 0.6962 0.4926 0.5222
vn -0.8712 0.4880 -0.0530
vn 0.4815 0.4880 -0.7280
vn 0.3897 0.4880 0.7810
vn 0.1042 0.4926 -0.8640
vn -0.3704 0.3502 -0.8603
vn 0.3527 0.4522 0.8192
vn 0.5331 0.4522 -0.7150
vn -0.8858 0.4522 -0.1042
vn 0.9303 0.3502 0.1094
vn -0.5599 0.3502 0.7509
vn -0.2414 0.4557 -0.8568
vn 0.2161 0.5505 0.8064
vn 0.6296 0.5321 -0.5661
vn -0.8280 0.5197 -0.2105
vn 0.8910 0.4301 0.1452
vn -0.6161 0.4531 0.6443
vn -0.4736 0.3209 0.8202
vn 0.0000 1.0000 -0.0002
vn 0.0000 1.0000 0.0004
vn 0.9471 0.3209 0.0000
vn -0.9471 0.3209 0.0000
vn 0.4736 0.3209 -0.8202
vn 0.4736 0.3209 0.8202
vn -0.4736 0.3209 -0.8202
vn 0.0409 -0.9967 0.0708
vn -0.0409 -0.9967 -0.0708
vn -0.0409 -0.9967 0.0708
vn 0.0817 -0.9967 0.0000
vn -0.0916 -0.9958 0.0000
vn 0.0414 -0.9966 -0.0718
vn -0.3385 0.3214 0.8844
vn 0.9351 0.3214 -0.1491
vn -0.8934 0.4261 0.1424
vn 0.3234 0.4261 -0.8449
vn 0.5700 0.4261 0.7025
vn -0.5967 0.3214 -0.7353
vn -0.6701 0.5450 -0.5039
vn 0.3748 0.4655 0.8018
vn 0.5069 0.4655 -0.7255
vn -0.8818 0.4655 -0.0763
vn 0.7715 0.5450 -0.3284
vn -0.1014 0.5450 0.8323
vn -0.4848 0.6213 -0.6156
vn 0.1121 0.4797 0.8702
vn 0.7297 0.4674 -0.4990
vn -0.8294 0.5011 -0.2469
vn 0.7686 0.6030 -0.2137
vn -0.2931 0.6139 0.7329
s off
f 2/1/1 32/2/1 31/3/1
f 32/2/2 6/4/2 33/5/2
f 6/6/3 34/7/3 33/8/3
f 8/9/4 35/10/4 34/7/4
f 19/11/5 17/12/5 20/13/5
f 10/14/6 36/15/6 35/10/6
f 12/16/7 31/3/7 36/15/7
f 5/17/8 7/18/8 11/19/8
f 18/20/9 17/12/9 15/21/9
f 21/22/10 15/21/10 22/23/10
f 20/13/11 18/20/11 23/24/11
f 24/25/12 14/26/12 21/22/12
f 22/27/13 16/28/13 19/11/13
f 23/24/14 13/29/14 24/25/14
f 54/30/8 24/25/8 51/31/8
f 53/32/8 19/11/8 49/33/8
f 51/31/8 21/22/8 50/34/8
f 52/35/8 23/24/8 54/30/8
f 50/34/8 22/23/8 53/36/8
f 49/33/8 20/13/8 52/35/8
f 61/37/8 25/38/8 64/39/8
f 62/40/8 26/41/8 65/42/8
f 64/39/8 27/43/8 66/44/8
f 63/45/8 29/46/8 62/40/8
f 65/47/8 28/48/8 61/37/8
f 63/45/8 27/43/8 30/49/8
f 36/15/15 1/50/15 11/19/15
f 35/10/16 11/19/16 9/51/16
f 7/18/17 35/10/17 9/51/17
f 33/8/18 7/18/18 5/17/18
f 32/2/19 5/17/19 3/52/19
f 1/50/20 32/2/20 3/52/20
f 2/53/21 39/54/21 42/55/21
f 8/56/22 38/57/22 40/58/22
f 4/59/23 42/55/23 41/60/23
f 12/61/24 37/62/24 39/54/24
f 6/63/25 41/60/25 38/64/25
f 10/65/26 40/58/26 37/62/26
f 55/66/8 43/67/8 46/68/8
f 59/69/8 47/70/8 56/71/8
f 55/66/8 48/72/8 57/73/8
f 59/69/8 45/74/8 44/75/8
f 56/76/8 43/67/8 58/77/8
f 57/73/8 45/74/8 60/78/8
f 46/68/27 49/79/27 52/80/27
f 47/70/28 50/81/28 53/82/28
f 48/72/29 52/80/29 54/83/29
f 44/75/30 51/84/30 50/81/30
f 43/67/31 53/85/31 49/79/31
f 45/74/32 54/83/32 51/84/32
f 27/43/33 60/86/33 30/49/33
f 26/87/34 58/88/34 28/48/34
f 30/49/35 59/89/35 29/46/35
f 25/38/36 57/90/36 27/43/36
f 29/46/37 56/91/37 26/41/37
f 28/48/38 55/92/38 25/38/38
f 39/54/39 63/93/39 42/55/39
f 38/57/40 61/94/40 40/58/40
f 42/55/41 62/95/41 41/60/41
f 37/62/42 66/96/42 39/54/42
f 41/60/43 65/97/43 38/64/43
f 40/58/44 64/98/44 37/62/44
f 2/1/1 4/99/1 32/2/1
f 32/2/2 4/99/2 6/4/2
f 6/6/3 8/9/3 34/7/3
f 8/9/4 10/14/4 35/10/4
f 19/11/45 16/28/45 17/12/45
f 10/14/6 12/16/6 36/15/6
f 12/16/7 2/1/7 31/3/7
f 11/19/8 1/50/8 3/52/8
f 3/52/8 5/17/8 11/19/8
f 7/18/8 9/51/8 11/19/8
f 15/21/9 14/26/9 13/29/9
f 13/29/46 18/20/46 15/21/46
f 17/12/47 16/28/47 15/21/47
f 21/22/48 14/26/48 15/21/48
f 20/13/49 17/12/49 18/20/49
f 24/25/50 13/29/50 14/26/50
f 22/27/51 15/21/51 16/28/51
f 23/24/52 18/20/52 13/29/52
f 54/30/8 23/24/8 24/25/8
f 53/32/8 22/27/8 19/11/8
f 51/31/8 24/25/8 21/22/8
f 52/35/8 20/13/8 23/24/8
f 50/34/8 21/22/8 22/23/8
f 49/33/8 19/11/8 20/13/8
f 61/37/8 28/48/8 25/38/8
f 62/40/8 29/46/8 26/41/8
f 64/39/8 25/38/8 27/43/8
f 63/45/8 30/49/8 29/46/8
f 65/47/8 26/87/8 28/48/8
f 63/45/8 66/44/8 27/43/8
f 36/15/15 31/3/15 1/50/15
f 35/10/16 36/15/16 11/19/16
f 7/18/17 34/7/17 35/10/17
f 33/8/18 34/7/18 7/18/18
f 32/2/19 33/5/19 5/17/19
f 1/50/20 31/3/20 32/2/20
f 2/53/53 12/61/53 39/54/53
f 8/56/54 6/100/54 38/57/54
f 4/59/55 2/53/55 42/55/55
f 12/61/56 10/65/56 37/62/56
f 6/63/57 4/59/57 41/60/57
f 10/65/58 8/56/58 40/58/58
f 55/66/8 58/77/8 43/67/8
f 59/69/8 44/75/8 47/70/8
f 55/66/8 46/68/8 48/72/8
f 59/69/8 60/78/8 45/74/8
f 56/76/8 47/101/8 43/67/8
f 57/73/8 48/72/8 45/74/8
f 46/68/59 43/67/59 49/79/59
f 47/70/60 44/75/60 50/81/60
f 48/72/61 46/68/61 52/80/61
f 44/75/62 45/74/62 51/84/62
f 43/67/63 47/101/63 53/85/63
f 45/74/64 48/72/64 54/83/64
f 27/43/65 57/90/65 60/86/65
f 26/87/66 56/102/66 58/88/66
f 30/49/67 60/86/67 59/89/67
f 25/38/68 55/92/68 57/90/68
f 29/46/69 59/89/69 56/91/69
f 28/48/70 58/88/70 55/92/70
f 39/54/71 66/96/71 63/93/71
f 38/57/72 65/103/72 61/94/72
f 42/55/73 63/93/73 62/95/73
f 37/62/74 64/98/74 66/96/74
f 41/60/75 62/95/75 65/97/75
f 40/58/76 61/94/76 64/98/76
